<svg width="820" height="760" viewBox="0 0 820 760" fill="none" xmlns="http://www.w3.org/2000/svg">
  <defs>
    <linearGradient id="anuGiftBg" x1="104" y1="72" x2="708" y2="688" gradientUnits="userSpaceOnUse">
      <stop stop-color="#FFF7E6"/>
      <stop offset="1" stop-color="#F7E6C6"/>
    </linearGradient>
    <linearGradient id="anuGiftRibbon" x1="387" y1="186" x2="480" y2="520" gradientUnits="userSpaceOnUse">
      <stop stop-color="#F6DB8A"/>
      <stop offset="1" stop-color="#B88127"/>
    </linearGradient>
    <linearGradient id="anuGiftBoxTop" x1="255" y1="224" x2="531" y2="358" gradientUnits="userSpaceOnUse">
      <stop stop-color="#E6B55B"/>
      <stop offset="1" stop-color="#9E6821"/>
    </linearGradient>
    <linearGradient id="anuGiftBoxFront" x1="242" y1="312" x2="546" y2="556" gradientUnits="userSpaceOnUse">
      <stop stop-color="#D99D44"/>
      <stop offset="1" stop-color="#8D5A1A"/>
    </linearGradient>
    <radialGradient id="anuGiftHalo" cx="0" cy="0" r="1" gradientUnits="userSpaceOnUse" gradientTransform="translate(412 328) rotate(90) scale(302 294)">
      <stop stop-color="#FFF8E9" stop-opacity="0.92"/>
      <stop offset="1" stop-color="#FFF8E9" stop-opacity="0"/>
    </radialGradient>
    <filter id="anuGiftShadow" x="124" y="120" width="574" height="526" filterUnits="userSpaceOnUse" color-interpolation-filters="sRGB">
      <feDropShadow dx="0" dy="22" stdDeviation="24" flood-color="#7A4A17" flood-opacity="0.24"/>
    </filter>
    <filter id="anuBowlShadow" x="390" y="408" width="224" height="174" filterUnits="userSpaceOnUse" color-interpolation-filters="sRGB">
      <feDropShadow dx="0" dy="18" stdDeviation="18" flood-color="#5C3510" flood-opacity="0.2"/>
    </filter>
  </defs>

  <rect x="70" y="54" width="680" height="650" rx="72" fill="url(#anuGiftBg)"/>
  <ellipse cx="408" cy="580" rx="214" ry="44" fill="#D8B67E" fill-opacity="0.28"/>
  <circle cx="410" cy="334" r="232" fill="url(#anuGiftHalo)"/>

  <path d="M187 246C175 206 193 171 240 150C287 129 314 145 320 193C267 192 223 209 187 246Z" fill="#4C7B47"/>
  <path d="M227 203C234 163 262 135 312 121C331 168 323 207 288 236L227 203Z" fill="#77A95A"/>
  <path d="M641 224C653 184 635 149 588 128C541 107 514 123 508 171C561 170 605 187 641 224Z" fill="#4C7B47"/>
  <path d="M601 181C594 141 566 113 516 99C497 146 505 185 540 214L601 181Z" fill="#77A95A"/>

  <g filter="url(#anuGiftShadow)">
    <path d="M245 276L398 184L569 278L414 371L245 276Z" fill="url(#anuGiftBoxTop)"/>
    <path d="M244 275L244 466L414 565V371L244 275Z" fill="#A56622"/>
    <path d="M414 371V565L571 467V278L414 371Z" fill="url(#anuGiftBoxFront)"/>
    <path d="M244 275L398 184L571 278" stroke="#F2D79C" stroke-width="8" stroke-linecap="round" stroke-linejoin="round"/>
    <path d="M414 371L414 565" stroke="#F2D79C" stroke-width="8" stroke-linecap="round"/>
    <path d="M329 325L498 421" stroke="#F2D79C" stroke-width="8" stroke-linecap="round" stroke-linejoin="round" opacity="0.8"/>
  </g>

  <path d="M391 184H440V565H391V184Z" fill="url(#anuGiftRibbon)"/>
  <path d="M248 246H572V292H248V246Z" fill="url(#anuGiftRibbon)"/>
  <path d="M379 150C398 122 437 117 468 139C442 162 423 185 411 208C399 186 388 167 379 150Z" fill="#CC8E2B"/>
  <path d="M456 150C472 123 508 120 536 143C511 164 492 187 481 208C470 187 462 168 456 150Z" fill="#E7BA56"/>
  <path d="M409 150C387 123 349 120 321 143C347 165 366 188 379 208C392 186 402 167 409 150Z" fill="#E7BA56"/>

  <path d="M520 241C570 275 598 319 603 372C541 364 494 340 463 299L520 241Z" fill="#315B35"/>
  <path d="M297 238C247 272 219 316 214 369C276 361 323 337 354 296L297 238Z" fill="#315B35"/>

  <g filter="url(#anuBowlShadow)">
    <ellipse cx="500" cy="533" rx="84" ry="28" fill="#734523"/>
    <path d="M430 498C432 531 460 556 500 556C540 556 568 531 570 498H430Z" fill="#A86629"/>
    <path d="M441 496C447 467 469 448 500 448C531 448 553 467 559 496H441Z" fill="#6F3F1B"/>
    <path d="M447 493C456 469 476 457 500 457C524 457 544 469 553 493H447Z" fill="#7F4A1C"/>
    <path d="M456 491C466 473 481 464 500 464C519 464 534 473 544 491H456Z" fill="#7C2F14"/>
  </g>

  <path d="M278 470C304 452 331 448 360 457C341 484 314 498 278 499V470Z" fill="#8B4A21"/>
  <path d="M292 489C323 474 349 475 371 492C346 510 320 515 292 505V489Z" fill="#A65B2A"/>
  <path d="M311 516C339 502 362 503 382 518C360 536 337 541 311 531V516Z" fill="#C56E35"/>

  <path d="M565 446C592 429 614 425 632 434C611 454 588 463 565 462V446Z" fill="#8F5B31"/>
  <path d="M575 468C603 454 626 455 644 470C621 486 598 490 575 481V468Z" fill="#A76F3C"/>

  <path d="M198 527C228 471 252 441 271 435C289 429 306 436 323 456C275 470 233 494 198 527Z" fill="#DFA34C" fill-opacity="0.9"/>
  <path d="M634 527C604 471 580 441 561 435C543 429 526 436 509 456C557 470 599 494 634 527Z" fill="#DFA34C" fill-opacity="0.9"/>

  <circle cx="250" cy="560" r="8" fill="#B66F2E"/>
  <circle cx="571" cy="572" r="7" fill="#B66F2E"/>
  <circle cx="605" cy="548" r="6" fill="#D99D44"/>
  <circle cx="216" cy="546" r="6" fill="#D99D44"/>
  <circle cx="359" cy="587" r="5" fill="#8F5B31"/>

  <rect x="348" y="300" width="124" height="72" rx="18" fill="#FFF8E7" fill-opacity="0.92"/>
  <text x="410" y="329" text-anchor="middle" font-family="Georgia, serif" font-size="22" font-weight="700" fill="#194431">PURELEVEN</text>
  <text x="410" y="354" text-anchor="middle" font-family="Arial, sans-serif" font-size="13" letter-spacing="2.2" fill="#7A6A47">WELCOME GIFT</text>
</svg>