<svg width="256" height="256" viewBox="0 0 256 256" fill="none" xmlns="http://www.w3.org/2000/svg">
  <defs>
    <filter id="shadow" x="24" y="18" width="208" height="214" filterUnits="userSpaceOnUse" color-interpolation-filters="sRGB">
      <feDropShadow dx="0" dy="14" stdDeviation="14" flood-color="#0E5C36" flood-opacity="0.16"/>
    </filter>
    <linearGradient id="boxFace" x1="128" y1="48" x2="128" y2="196" gradientUnits="userSpaceOnUse">
      <stop stop-color="#FBF6E8"/>
      <stop offset="1" stop-color="#E6DFC8"/>
    </linearGradient>
    <linearGradient id="lidFace" x1="128" y1="34" x2="128" y2="92" gradientUnits="userSpaceOnUse">
      <stop stop-color="#FFFDF6"/>
      <stop offset="1" stop-color="#EDE5CF"/>
    </linearGradient>
    <linearGradient id="ribbon" x1="128" y1="42" x2="128" y2="196" gradientUnits="userSpaceOnUse">
      <stop stop-color="#178A4E"/>
      <stop offset="1" stop-color="#0E5C36"/>
    </linearGradient>
  </defs>
  <ellipse cx="128" cy="214" rx="74" ry="12" fill="#E2D7BA" fill-opacity="0.75"/>
  <g filter="url(#shadow)">
    <path d="M74 86H182V186C182 193.732 175.732 200 168 200H88C80.268 200 74 193.732 74 186V86Z" fill="url(#boxFace)"/>
    <rect x="62" y="60" width="132" height="38" rx="10" fill="url(#lidFace)"/>
    <rect x="116" y="52" width="24" height="148" rx="10" fill="url(#ribbon)"/>
    <rect x="62" y="72" width="132" height="14" rx="7" fill="#116A3E"/>
    <path d="M126 52C110 36 104 32 98 34C92 36 92 46 100 53C108 60 117 60 126 52Z" fill="#136F40"/>
    <path d="M130 52C146 36 152 32 158 34C164 36 164 46 156 53C148 60 139 60 130 52Z" fill="#1B9353"/>
    <path d="M126 54C112 50 106 50 104 56C102 62 110 66 120 66C130 66 132 62 126 54Z" fill="#0C5A33"/>
    <path d="M130 54C144 50 150 50 152 56C154 62 146 66 136 66C126 66 124 62 130 54Z" fill="#0F6438"/>
    <path d="M82 104H174" stroke="#D9D0B9" stroke-width="4" stroke-linecap="round"/>
    <path d="M82 122H174" stroke="#DDD4BC" stroke-width="4" stroke-linecap="round"/>
    <path d="M82 140H174" stroke="#DDD4BC" stroke-width="4" stroke-linecap="round"/>
  </g>
</svg>