<svg xmlns="http://www.w3.org/2000/svg" viewBox="0 0 1200 520" role="img" aria-labelledby="title desc">
  <title id="title">Kerala spice farming sketch</title>
  <desc id="desc">Line sketch of Idukki hills, spice plants, a farmer hand, and a kitchen jar.</desc>
  <rect width="1200" height="520" fill="#f8f5ee"/>
  <path d="M0 348c104-92 199-126 286-102 62 17 103 62 165 63 80 2 120-69 203-73 86-4 128 69 207 61 71-7 99-72 170-82 66-9 117 33 169 83v222H0Z" fill="#e6efe9"/>
  <path d="M0 365c101-79 188-107 263-84 68 21 105 74 177 72 84-2 123-77 203-75 76 2 115 69 189 68 86-1 122-88 213-85 62 2 109 44 155 90" fill="none" stroke="#1b5e56" stroke-width="5" stroke-linecap="round" opacity=".42"/>
  <path d="M77 416c96-44 200-64 313-60 90 3 154 24 229 31 123 12 226-13 324-74" fill="none" stroke="#d4821a" stroke-width="3" stroke-linecap="round" opacity=".55"/>
  <g fill="none" stroke="#1b3a30" stroke-linecap="round" stroke-linejoin="round">
    <path d="M185 390c15-64 53-105 113-123 50 38 56 86 20 144" stroke-width="5"/>
    <path d="M243 366c-16-50-8-91 23-123 47 20 68 55 64 106" stroke-width="4" opacity=".72"/>
    <path d="M253 296c31 17 51 40 62 70" stroke-width="3" opacity=".62"/>
    <path d="M216 321c31 9 58 26 82 51" stroke-width="3" opacity=".62"/>
  </g>
  <g transform="translate(686 178)" fill="none" stroke="#1b3a30" stroke-linecap="round" stroke-linejoin="round">
    <path d="M94 44c-26 12-41 34-48 66-6 27-22 51-46 72" stroke-width="5"/>
    <path d="M95 44c35 19 63 49 84 91 16 32 39 53 70 63" stroke-width="5"/>
    <path d="M70 92c23-10 48-12 76-4" stroke-width="3" opacity=".68"/>
    <path d="M48 138c36-18 76-22 120-12" stroke-width="3" opacity=".68"/>
    <circle cx="91" cy="45" r="17" fill="#d4821a" stroke="none" opacity=".8"/>
    <circle cx="141" cy="91" r="9" fill="#1b5e56" stroke="none" opacity=".7"/>
    <circle cx="58" cy="126" r="8" fill="#1b5e56" stroke="none" opacity=".7"/>
  </g>
  <g transform="translate(462 224)" fill="none" stroke="#1b3a30" stroke-linecap="round" stroke-linejoin="round">
    <path d="M32 172c38-22 73-58 105-108 15-24 35-40 60-48 19-6 32-4 38 6 5 9 1 19-12 30l-59 51" stroke-width="5"/>
    <path d="M159 119c49-11 87-9 114 6 11 6 15 15 10 26-5 10-16 14-33 11l-91-15" stroke-width="5"/>
    <path d="M92 112c-11-35-2-67 27-96 44 12 70 38 78 78" stroke-width="4" opacity=".68"/>
    <path d="M112 56c26 17 45 41 57 71" stroke-width="3" opacity=".58"/>
  </g>
  <g transform="translate(925 285)" fill="none" stroke="#1b3a30" stroke-linecap="round" stroke-linejoin="round">
    <path d="M35 14h126l-10 170H45Z" stroke-width="5"/>
    <path d="M49 15c6-10 22-15 49-15s43 5 49 15" stroke-width="4"/>
    <path d="M60 66h76" stroke-width="4" opacity=".6"/>
    <path d="M63 104h70" stroke-width="4" opacity=".6"/>
    <path d="M69 142h57" stroke-width="4" opacity=".6"/>
  </g>
  <g fill="#1b5e56" opacity=".16">
    <circle cx="160" cy="118" r="18"/>
    <circle cx="1012" cy="114" r="24"/>
    <circle cx="562" cy="96" r="12"/>
  </g>
  <text x="92" y="96" fill="#1b3a30" font-family="Georgia, serif" font-size="42" font-weight="600">Idukki soil, clean hands, fresh aroma.</text>
  <text x="94" y="136" fill="#5a6b67" font-family="Arial, sans-serif" font-size="20">A quiet farming story behind every pouch.</text>
</svg>
